<mxfile host="app.diagrams.net" modified="2024-10-04T08:05:58.586Z" agent="Mozilla/5.0 (Windows NT 10.0; Win64; x64) AppleWebKit/537.36 (KHTML, like Gecko) Chrome/129.0.0.0 Safari/537.36" version="24.3.1" etag="j3KbNVrbNjUYRmybuCqB" type="github">
  <diagram name="Page-1" id="9oO7Fe72cK8OdSS0lueW">
    <mxGraphModel>
      <root>
        <mxCell id="0" />
        <mxCell id="1" parent="0" />
      </root>
    </mxGraphModel>
  </diagram>
</mxfile>
